<mxfile host="app.diagrams.net" agent="Mozilla/5.0 (Macintosh; Intel Mac OS X 10_15_7) AppleWebKit/537.36 (KHTML, like Gecko) Chrome/131.0.0.0 Safari/537.36 Edg/131.0.0.0" version="24.8.4">
  <diagram name="Page-1" id="j73lYDhUopbi-YUbwO6L">
    <mxGraphModel dx="1720" dy="1107" grid="1" gridSize="10" guides="1" tooltips="1" connect="1" arrows="1" fold="1" page="1" pageScale="1" pageWidth="850" pageHeight="1100" math="0" shadow="0">
      <root>
        <mxCell id="0" />
        <mxCell id="1" parent="0" />
        <mxCell id="AzlDN_MMZRkTs9XkH3pq-3" value="Current Data" style="rounded=0;whiteSpace=wrap;html=1;" vertex="1" parent="1">
          <mxGeometry x="450" y="600" width="120" height="340" as="geometry" />
        </mxCell>
        <mxCell id="AzlDN_MMZRkTs9XkH3pq-20" style="edgeStyle=orthogonalEdgeStyle;rounded=0;orthogonalLoop=1;jettySize=auto;html=1;entryX=0;entryY=0.5;entryDx=0;entryDy=0;" edge="1" parent="1" source="AzlDN_MMZRkTs9XkH3pq-4" target="AzlDN_MMZRkTs9XkH3pq-13">
          <mxGeometry relative="1" as="geometry">
            <Array as="points">
              <mxPoint x="140" y="605" />
              <mxPoint x="140" y="360" />
            </Array>
          </mxGeometry>
        </mxCell>
        <mxCell id="AzlDN_MMZRkTs9XkH3pq-21" style="edgeStyle=orthogonalEdgeStyle;rounded=0;orthogonalLoop=1;jettySize=auto;html=1;entryX=0;entryY=0.5;entryDx=0;entryDy=0;" edge="1" parent="1" source="AzlDN_MMZRkTs9XkH3pq-4" target="AzlDN_MMZRkTs9XkH3pq-12">
          <mxGeometry relative="1" as="geometry">
            <Array as="points">
              <mxPoint x="120" y="605" />
              <mxPoint x="120" y="270" />
            </Array>
          </mxGeometry>
        </mxCell>
        <mxCell id="AzlDN_MMZRkTs9XkH3pq-32" style="edgeStyle=orthogonalEdgeStyle;rounded=0;orthogonalLoop=1;jettySize=auto;html=1;entryX=0;entryY=0.5;entryDx=0;entryDy=0;" edge="1" parent="1" source="AzlDN_MMZRkTs9XkH3pq-4" target="AzlDN_MMZRkTs9XkH3pq-10">
          <mxGeometry relative="1" as="geometry">
            <Array as="points">
              <mxPoint x="80" y="605" />
              <mxPoint x="80" y="90" />
            </Array>
          </mxGeometry>
        </mxCell>
        <mxCell id="AzlDN_MMZRkTs9XkH3pq-4" value="Client Latest Data: 1000" style="text;html=1;align=center;verticalAlign=middle;whiteSpace=wrap;rounded=0;" vertex="1" parent="1">
          <mxGeometry x="270" y="590" width="170" height="30" as="geometry" />
        </mxCell>
        <mxCell id="AzlDN_MMZRkTs9XkH3pq-28" style="edgeStyle=orthogonalEdgeStyle;rounded=0;orthogonalLoop=1;jettySize=auto;html=1;entryX=0;entryY=0.5;entryDx=0;entryDy=0;" edge="1" parent="1" source="AzlDN_MMZRkTs9XkH3pq-5" target="AzlDN_MMZRkTs9XkH3pq-11">
          <mxGeometry relative="1" as="geometry">
            <Array as="points">
              <mxPoint x="100" y="935" />
              <mxPoint x="100" y="180" />
            </Array>
          </mxGeometry>
        </mxCell>
        <mxCell id="AzlDN_MMZRkTs9XkH3pq-31" style="edgeStyle=orthogonalEdgeStyle;rounded=0;orthogonalLoop=1;jettySize=auto;html=1;entryX=0;entryY=0.5;entryDx=0;entryDy=0;" edge="1" parent="1" source="AzlDN_MMZRkTs9XkH3pq-5" target="AzlDN_MMZRkTs9XkH3pq-10">
          <mxGeometry relative="1" as="geometry">
            <Array as="points">
              <mxPoint x="80" y="935" />
              <mxPoint x="80" y="90" />
            </Array>
          </mxGeometry>
        </mxCell>
        <mxCell id="AzlDN_MMZRkTs9XkH3pq-5" value="Client Oldest Data: 800" style="text;html=1;align=center;verticalAlign=middle;whiteSpace=wrap;rounded=0;" vertex="1" parent="1">
          <mxGeometry x="260" y="920" width="170" height="30" as="geometry" />
        </mxCell>
        <mxCell id="AzlDN_MMZRkTs9XkH3pq-36" style="edgeStyle=orthogonalEdgeStyle;rounded=0;orthogonalLoop=1;jettySize=auto;html=1;entryX=1;entryY=0.5;entryDx=0;entryDy=0;" edge="1" parent="1" source="AzlDN_MMZRkTs9XkH3pq-10" target="AzlDN_MMZRkTs9XkH3pq-33">
          <mxGeometry relative="1" as="geometry">
            <Array as="points">
              <mxPoint x="780" y="90" />
              <mxPoint x="780" y="625" />
            </Array>
          </mxGeometry>
        </mxCell>
        <mxCell id="AzlDN_MMZRkTs9XkH3pq-37" style="edgeStyle=orthogonalEdgeStyle;rounded=0;orthogonalLoop=1;jettySize=auto;html=1;entryX=1;entryY=0.5;entryDx=0;entryDy=0;" edge="1" parent="1" source="AzlDN_MMZRkTs9XkH3pq-10" target="AzlDN_MMZRkTs9XkH3pq-34">
          <mxGeometry relative="1" as="geometry">
            <Array as="points">
              <mxPoint x="780" y="90" />
              <mxPoint x="780" y="675" />
            </Array>
          </mxGeometry>
        </mxCell>
        <mxCell id="AzlDN_MMZRkTs9XkH3pq-10" value="Backfill data in chuncks between 2 timestamps, recursively until all backfill data is updated" style="rounded=0;whiteSpace=wrap;html=1;" vertex="1" parent="1">
          <mxGeometry x="180" y="60" width="240" height="60" as="geometry" />
        </mxCell>
        <mxCell id="AzlDN_MMZRkTs9XkH3pq-29" style="edgeStyle=orthogonalEdgeStyle;rounded=0;orthogonalLoop=1;jettySize=auto;html=1;entryX=1;entryY=0.5;entryDx=0;entryDy=0;" edge="1" parent="1" source="AzlDN_MMZRkTs9XkH3pq-11" target="AzlDN_MMZRkTs9XkH3pq-26">
          <mxGeometry relative="1" as="geometry">
            <Array as="points">
              <mxPoint x="760" y="180" />
              <mxPoint x="760" y="965" />
            </Array>
          </mxGeometry>
        </mxCell>
        <mxCell id="AzlDN_MMZRkTs9XkH3pq-30" style="edgeStyle=orthogonalEdgeStyle;rounded=0;orthogonalLoop=1;jettySize=auto;html=1;entryX=1;entryY=0.5;entryDx=0;entryDy=0;" edge="1" parent="1" source="AzlDN_MMZRkTs9XkH3pq-11" target="AzlDN_MMZRkTs9XkH3pq-27">
          <mxGeometry relative="1" as="geometry">
            <Array as="points">
              <mxPoint x="760" y="180" />
              <mxPoint x="760" y="1015" />
            </Array>
          </mxGeometry>
        </mxCell>
        <mxCell id="AzlDN_MMZRkTs9XkH3pq-11" value="Request old data, submit client oldest version (recursively until all data is returned):&lt;br&gt;The api returns the newest chunk of data" style="rounded=0;whiteSpace=wrap;html=1;" vertex="1" parent="1">
          <mxGeometry x="180" y="150" width="240" height="60" as="geometry" />
        </mxCell>
        <mxCell id="AzlDN_MMZRkTs9XkH3pq-25" style="edgeStyle=orthogonalEdgeStyle;rounded=0;orthogonalLoop=1;jettySize=auto;html=1;entryX=1;entryY=0.5;entryDx=0;entryDy=0;" edge="1" parent="1" source="AzlDN_MMZRkTs9XkH3pq-12" target="AzlDN_MMZRkTs9XkH3pq-23">
          <mxGeometry relative="1" as="geometry">
            <Array as="points">
              <mxPoint x="740" y="270" />
              <mxPoint x="740" y="575" />
            </Array>
          </mxGeometry>
        </mxCell>
        <mxCell id="AzlDN_MMZRkTs9XkH3pq-12" value="Request new data, between 2 timestamps recursively until gap is filled:&lt;br&gt;The api returns the newest chunk of data" style="rounded=0;whiteSpace=wrap;html=1;" vertex="1" parent="1">
          <mxGeometry x="180" y="240" width="240" height="60" as="geometry" />
        </mxCell>
        <mxCell id="AzlDN_MMZRkTs9XkH3pq-19" style="edgeStyle=orthogonalEdgeStyle;rounded=0;orthogonalLoop=1;jettySize=auto;html=1;entryX=1;entryY=0.5;entryDx=0;entryDy=0;" edge="1" parent="1" source="AzlDN_MMZRkTs9XkH3pq-13" target="AzlDN_MMZRkTs9XkH3pq-14">
          <mxGeometry relative="1" as="geometry" />
        </mxCell>
        <mxCell id="AzlDN_MMZRkTs9XkH3pq-13" value="Request new data, Submit client latest:&lt;br&gt;The api returns the newest chunk of data" style="rounded=0;whiteSpace=wrap;html=1;" vertex="1" parent="1">
          <mxGeometry x="180" y="330" width="240" height="60" as="geometry" />
        </mxCell>
        <mxCell id="AzlDN_MMZRkTs9XkH3pq-14" value="Latest Chuck" style="rounded=0;whiteSpace=wrap;html=1;" vertex="1" parent="1">
          <mxGeometry x="450" y="500" width="250" height="50" as="geometry" />
        </mxCell>
        <mxCell id="AzlDN_MMZRkTs9XkH3pq-15" value="API Latest Data: 1200" style="text;html=1;align=center;verticalAlign=middle;whiteSpace=wrap;rounded=0;" vertex="1" parent="1">
          <mxGeometry x="270" y="490" width="170" height="30" as="geometry" />
        </mxCell>
        <mxCell id="AzlDN_MMZRkTs9XkH3pq-22" style="edgeStyle=orthogonalEdgeStyle;rounded=0;orthogonalLoop=1;jettySize=auto;html=1;entryX=0;entryY=0.5;entryDx=0;entryDy=0;" edge="1" parent="1" source="AzlDN_MMZRkTs9XkH3pq-16" target="AzlDN_MMZRkTs9XkH3pq-12">
          <mxGeometry relative="1" as="geometry">
            <Array as="points">
              <mxPoint x="120" y="555" />
              <mxPoint x="120" y="270" />
            </Array>
          </mxGeometry>
        </mxCell>
        <mxCell id="AzlDN_MMZRkTs9XkH3pq-16" value="API End of chunk: 1100" style="text;html=1;align=center;verticalAlign=middle;whiteSpace=wrap;rounded=0;" vertex="1" parent="1">
          <mxGeometry x="260" y="540" width="170" height="30" as="geometry" />
        </mxCell>
        <mxCell id="AzlDN_MMZRkTs9XkH3pq-23" value="Chuck" style="rounded=0;whiteSpace=wrap;html=1;" vertex="1" parent="1">
          <mxGeometry x="450" y="550" width="250" height="50" as="geometry" />
        </mxCell>
        <mxCell id="AzlDN_MMZRkTs9XkH3pq-26" value="Chuck" style="rounded=0;whiteSpace=wrap;html=1;" vertex="1" parent="1">
          <mxGeometry x="450" y="940" width="250" height="50" as="geometry" />
        </mxCell>
        <mxCell id="AzlDN_MMZRkTs9XkH3pq-27" value="Chuck" style="rounded=0;whiteSpace=wrap;html=1;" vertex="1" parent="1">
          <mxGeometry x="450" y="990" width="250" height="50" as="geometry" />
        </mxCell>
        <mxCell id="AzlDN_MMZRkTs9XkH3pq-33" value="Chuck" style="rounded=0;whiteSpace=wrap;html=1;" vertex="1" parent="1">
          <mxGeometry x="570" y="600" width="130" height="50" as="geometry" />
        </mxCell>
        <mxCell id="AzlDN_MMZRkTs9XkH3pq-34" value="Chuck" style="rounded=0;whiteSpace=wrap;html=1;" vertex="1" parent="1">
          <mxGeometry x="570" y="650" width="130" height="50" as="geometry" />
        </mxCell>
        <mxCell id="AzlDN_MMZRkTs9XkH3pq-35" value="..." style="text;html=1;align=center;verticalAlign=middle;whiteSpace=wrap;rounded=0;" vertex="1" parent="1">
          <mxGeometry x="605" y="710" width="60" height="30" as="geometry" />
        </mxCell>
      </root>
    </mxGraphModel>
  </diagram>
</mxfile>
